<svg width="138" height="44" viewBox="0 0 138 44" fill="none" xmlns="http://www.w3.org/2000/svg">
<path d="M7.74019 15.0921C7.74019 14.536 7.65612 14.135 7.488 13.8893C7.33281 13.6436 7.09355 13.4949 6.77024 13.4432C6.44692 13.3785 6.04601 13.3591 5.5675 13.385L4.44236 13.4238V17.4587C4.44236 17.8079 4.4359 18.1183 4.42296 18.3899C4.42296 18.6485 4.41003 18.8619 4.38417 19.0301L7.72079 18.9913C8.22516 18.9783 8.6778 18.8878 9.07871 18.7197C9.47963 18.5386 9.79648 18.2347 10.0293 17.8079C10.2621 17.3811 10.3784 16.7992 10.3784 16.062H11.232L11.1156 20H1.02815V19.1464C1.45492 19.1206 1.75884 19.0301 1.9399 18.8749C2.13389 18.7197 2.25675 18.4869 2.30848 18.1765C2.36021 17.8661 2.38607 17.4717 2.38607 16.9932V8.92319C2.38607 8.63867 2.39254 8.36709 2.40547 8.10844C2.4184 7.83685 2.43134 7.60406 2.44427 7.41007C2.22441 7.42301 1.98516 7.43594 1.72651 7.44887C1.46785 7.4618 1.23507 7.47474 1.02815 7.48767V6.42073H10.4948L10.5918 9.93194H9.73828C9.73828 9.19478 9.61542 8.63221 9.3697 8.24423C9.13691 7.85625 8.82653 7.5976 8.43855 7.46827C8.0635 7.33894 7.65612 7.28075 7.21641 7.29368L5.85849 7.33248C5.45758 7.33248 5.15366 7.40361 4.94674 7.54587C4.73981 7.67519 4.60402 7.89505 4.53936 8.20543C4.47469 8.50288 4.44236 8.91026 4.44236 9.42757V12.4732H7.64319L7.5268 10.8049H8.59374V15.0921H7.74019ZM26.6163 20.194C26.086 18.9783 25.5558 17.7627 25.0256 16.547C24.4953 15.3313 23.9716 14.1092 23.4543 12.8806C23.2991 12.5185 23.1374 12.124 22.9693 11.6972C22.8012 11.2705 22.633 10.8178 22.4649 10.3393C22.2968 9.86081 22.1351 9.37583 21.9799 8.88439C21.9799 9.22064 21.9799 9.54396 21.9799 9.85434C21.9799 10.1647 21.9799 10.4622 21.9799 10.7467C21.967 11.1476 21.9541 11.6196 21.9411 12.1628C21.9282 12.6931 21.9088 13.2556 21.8829 13.8505C21.87 14.4454 21.8571 15.0403 21.8441 15.6352C21.8441 16.2172 21.8377 16.7798 21.8247 17.3229C21.8247 17.6333 21.8183 17.9372 21.8053 18.2347C21.7924 18.5321 21.773 18.7908 21.7471 19.0107C21.9799 18.9848 22.2257 18.9719 22.4843 18.9719C22.7559 18.9589 22.9951 18.946 23.2021 18.9331V20H19.2641V19.1464C19.6262 19.1335 19.9042 19.0624 20.0982 18.9331C20.2922 18.8037 20.4215 18.6097 20.4862 18.3511C20.5638 18.0924 20.6091 17.7756 20.622 17.4005L20.8936 9.02019C20.9065 8.73567 20.9195 8.45115 20.9324 8.16663C20.9453 7.88211 20.9583 7.62993 20.9712 7.41007C20.7384 7.42301 20.4927 7.43594 20.234 7.44887C19.9754 7.44887 19.7491 7.45534 19.5551 7.46827V6.42073H22.9499L26.1507 14.0639C26.3059 14.4131 26.4611 14.7881 26.6163 15.1891C26.7715 15.577 26.9267 15.965 27.0819 16.353C27.25 16.728 27.3987 17.0837 27.528 17.4199H27.5668C27.7091 17.032 27.8708 16.6052 28.0518 16.1396C28.2329 15.674 28.3881 15.2602 28.5174 14.8981C29.0735 13.5013 29.6361 12.1046 30.2051 10.7079C30.7871 9.31117 31.3561 7.88211 31.9122 6.42073H35.3264V7.27428C35.016 7.27428 34.7509 7.33248 34.5311 7.44887C34.3241 7.55233 34.1689 7.74632 34.0655 8.03084C33.975 8.31536 33.9426 8.72274 33.9685 9.25297L34.3953 17.6139C34.4211 17.8726 34.4276 18.1248 34.4147 18.3705C34.4147 18.6162 34.4082 18.8231 34.3953 18.9913C34.6281 18.9783 34.8738 18.9719 35.1324 18.9719C35.404 18.9589 35.6368 18.946 35.8308 18.9331V20H31.1362V19.1464C31.5113 19.1335 31.7958 19.0559 31.9898 18.9137C32.1967 18.7714 32.3325 18.5515 32.3972 18.2541C32.4618 17.9437 32.4812 17.5428 32.4554 17.0514L32.145 11.4063C32.1321 11.2123 32.1191 10.9859 32.1062 10.7273C32.0933 10.4557 32.0739 10.1777 32.048 9.89314C32.0351 9.59569 32.0221 9.31117 32.0092 9.03959C31.9704 9.13011 31.9316 9.22711 31.8928 9.33057C31.854 9.4211 31.8152 9.52456 31.7764 9.64095L27.6056 20.194H26.6163ZM43.8726 20V19.1464C44.2993 19.1335 44.6033 19.0495 44.7843 18.8943C44.9783 18.7261 45.1012 18.4804 45.1529 18.1571C45.2046 17.8338 45.2305 17.4264 45.2305 16.935V9.02019C45.2305 8.67101 45.237 8.36062 45.2499 8.08904C45.2628 7.80452 45.2758 7.5782 45.2887 7.41007C45.0688 7.42301 44.8296 7.43594 44.5709 7.44887C44.3123 7.4618 44.0795 7.47474 43.8726 7.48767V6.42073C44.6485 6.40779 45.4245 6.40133 46.2004 6.40133C46.9764 6.38839 47.7718 6.38193 48.5865 6.38193C50.1126 6.38193 51.3088 6.65998 52.1753 7.21608C53.0418 7.75925 53.4557 8.61281 53.4169 9.77675C53.4039 10.1777 53.2811 10.5786 53.0483 10.9795C52.8284 11.3675 52.4922 11.7166 52.0395 12.027C51.5869 12.3245 51.0243 12.5443 50.3518 12.6866V12.7254C51.7356 12.7901 52.7702 13.1522 53.4557 13.8117C54.1411 14.4584 54.4838 15.2473 54.4838 16.1784C54.4838 16.9802 54.2769 17.6721 53.863 18.2541C53.4621 18.8231 52.9125 19.2564 52.2141 19.5538C51.5287 19.8513 50.7398 20 49.8475 20H43.8726ZM47.2286 19.0301C47.4484 19.0301 47.6877 19.0365 47.9464 19.0495C48.205 19.0495 48.4507 19.0495 48.6835 19.0495C48.9292 19.0495 49.1103 19.0495 49.2267 19.0495C50.1578 19.0365 50.8885 18.7843 51.4188 18.2929C51.949 17.8015 52.2141 17.116 52.2141 16.2366C52.2141 15.5124 52.0654 14.9498 51.7679 14.5489C51.4834 14.135 51.1084 13.8441 50.6428 13.6759C50.1772 13.5078 49.6793 13.4238 49.1491 13.4238C48.787 13.4238 48.4572 13.4302 48.1597 13.4432C47.8752 13.4432 47.5842 13.4496 47.2868 13.4625V17.4393C47.2868 17.7885 47.2803 18.0989 47.2674 18.3705C47.2674 18.6421 47.2545 18.8619 47.2286 19.0301ZM47.2868 12.512L48.5671 12.4732C49.2396 12.4603 49.7699 12.318 50.1578 12.0464C50.5587 11.7748 50.8433 11.4257 51.0114 10.9989C51.1795 10.5721 51.2571 10.1259 51.2442 9.66035C51.2442 9.01372 51.1084 8.52228 50.8368 8.18603C50.5652 7.84978 50.229 7.617 49.8281 7.48767C49.4271 7.35834 49.0327 7.29368 48.6447 7.29368C48.2826 7.29368 48.0045 7.34541 47.8106 7.44887C47.6166 7.55233 47.4808 7.73339 47.4032 7.99204C47.3256 8.23776 47.2868 8.60634 47.2868 9.09778V12.512ZM62.3016 20V19.1464C62.7284 19.1206 63.0323 19.0301 63.2133 18.8749C63.4073 18.7197 63.5302 18.4869 63.5819 18.1765C63.6336 17.8661 63.6595 17.4717 63.6595 16.9932V8.92319C63.6595 8.63867 63.666 8.36709 63.6789 8.10844C63.6918 7.83685 63.7048 7.60406 63.7177 7.41007C63.4979 7.42301 63.2586 7.43594 62.9999 7.44887C62.7413 7.4618 62.5085 7.47474 62.3016 7.48767V6.42073C63.0905 6.40779 63.8858 6.40133 64.6877 6.40133C65.4895 6.38839 66.2978 6.38839 67.1125 6.40133C68.3282 6.40133 69.3305 6.54359 70.1194 6.8281C70.9083 7.09969 71.4967 7.50707 71.8847 8.05024C72.2856 8.59341 72.4796 9.27884 72.4666 10.1065C72.4796 10.6238 72.3761 11.1411 72.1563 11.6584C71.9364 12.1628 71.5678 12.6155 71.0505 13.0164C70.5332 13.4173 69.8219 13.7212 68.9166 13.9281C69.1753 14.0833 69.4081 14.2967 69.615 14.5683C69.8219 14.8399 70.0353 15.1438 70.2552 15.48L71.4385 17.3035C71.6842 17.6915 71.9105 18.0213 72.1175 18.2929C72.3244 18.5645 72.5572 18.7779 72.8158 18.9331C73.0745 19.0753 73.3849 19.1464 73.747 19.1464V20H71.0505C70.7143 19.7155 70.4233 19.4116 70.1776 19.0882C69.9448 18.752 69.6926 18.377 69.421 17.9631L68.0825 15.7904C67.9144 15.5318 67.7333 15.2537 67.5393 14.9563C67.3582 14.6588 67.1578 14.4066 66.9379 14.1997C66.731 14.1997 66.5241 14.1997 66.3172 14.1997C66.1232 14.1997 65.9227 14.1997 65.7158 14.1997V17.4005C65.7158 17.7497 65.7093 18.0666 65.6964 18.3511C65.6964 18.6227 65.6835 18.8425 65.6576 19.0107C65.8128 18.9977 65.9745 18.9913 66.1426 18.9913C66.3236 18.9783 66.4982 18.9654 66.6664 18.9525C66.8474 18.9395 67.0026 18.9331 67.1319 18.9331V20H62.3016ZM66.8409 13.2492C67.5522 13.2362 68.1601 13.1263 68.6644 12.9194C69.1688 12.6995 69.5568 12.3697 69.8284 11.93C70.1 11.4774 70.2358 10.8954 70.2358 10.1841C70.2358 9.65389 70.1582 9.20771 70.003 8.8456C69.8478 8.48348 69.6279 8.1925 69.3434 7.97264C69.0589 7.73986 68.7162 7.5782 68.3153 7.48767C67.9273 7.38421 67.507 7.33248 67.0543 7.33248C66.6405 7.33248 66.3366 7.41007 66.1426 7.56526C65.9615 7.72046 65.8451 7.94678 65.7934 8.24423C65.7417 8.54168 65.7158 8.92319 65.7158 9.38877V13.191C65.9098 13.2039 66.0909 13.2233 66.259 13.2492C66.44 13.2621 66.634 13.2621 66.8409 13.2492ZM80.7051 20V19.127C81.0931 19.127 81.3906 19.0236 81.5975 18.8167C81.8044 18.6097 81.979 18.3317 82.1213 17.9825C82.2635 17.6204 82.4187 17.2195 82.5868 16.7798L86.5054 6.05215H87.2814L91.5298 16.935C91.6332 17.1807 91.7496 17.5169 91.8789 17.9437C92.0083 18.3576 92.0665 18.7132 92.0535 19.0107C92.2734 18.9848 92.4868 18.9719 92.6937 18.9719C92.9136 18.9589 93.1205 18.946 93.3145 18.9331V20H88.6005V19.1464C89.0532 19.1335 89.3506 19.0365 89.4929 18.8555C89.6481 18.6615 89.7063 18.4287 89.6675 18.1571C89.6416 17.8855 89.5769 17.6139 89.4735 17.3423L88.8915 15.771L84.1388 15.8874L83.5762 17.5751C83.4986 17.8338 83.4145 18.0795 83.324 18.3123C83.2335 18.5451 83.1429 18.7714 83.0524 18.9913C83.2852 18.9654 83.5309 18.9525 83.7896 18.9525C84.0612 18.9395 84.3004 18.9266 84.5073 18.9137V20H80.7051ZM84.4879 14.8399H88.5617L87.3396 11.5615C87.1844 11.1347 87.0357 10.7144 86.8934 10.3005C86.7511 9.87374 86.6218 9.46636 86.5054 9.07838H86.486C86.3826 9.4017 86.2662 9.75735 86.1368 10.1453C86.0075 10.5333 85.8588 10.9536 85.6907 11.4063L84.4879 14.8399ZM110.81 10.7467C110.668 9.58276 110.267 8.6904 109.607 8.06964C108.948 7.43594 108.088 7.11262 107.027 7.09969C106.355 7.09969 105.734 7.24842 105.165 7.54587C104.596 7.84332 104.104 8.26363 103.691 8.8068C103.277 9.33704 102.953 9.97074 102.721 10.7079C102.501 11.4321 102.391 12.2275 102.391 13.094C102.391 14.2708 102.598 15.3184 103.012 16.2366C103.426 17.1419 103.995 17.8467 104.719 18.3511C105.456 18.8555 106.29 19.1076 107.221 19.1076C108.049 19.1076 108.864 18.9137 109.666 18.5257C110.48 18.1248 111.153 17.5622 111.683 16.838L112.323 17.3811C111.741 18.183 111.12 18.7973 110.461 19.224C109.801 19.6508 109.142 19.9353 108.482 20.0776C107.836 20.2328 107.247 20.3104 106.717 20.3104C105.747 20.3104 104.855 20.1358 104.04 19.7866C103.225 19.4374 102.52 18.9525 101.925 18.3317C101.343 17.698 100.891 16.9673 100.567 16.1396C100.257 15.299 100.102 14.3937 100.102 13.4238C100.102 12.5185 100.244 11.6326 100.529 10.7661C100.813 9.89961 101.233 9.11718 101.79 8.41882C102.346 7.70752 103.044 7.14495 103.885 6.73111C104.738 6.31727 105.728 6.11034 106.853 6.11034C107.512 6.11034 108.152 6.20087 108.773 6.38193C109.407 6.56299 110.015 6.84104 110.597 7.21608L110.5 6.24613H111.702V10.7467H110.81ZM126.82 15.0921C126.82 14.536 126.736 14.135 126.568 13.8893C126.413 13.6436 126.174 13.4949 125.85 13.4432C125.527 13.3785 125.126 13.3591 124.648 13.385L123.522 13.4238V17.4587C123.522 17.8079 123.516 18.1183 123.503 18.3899C123.503 18.6485 123.49 18.8619 123.464 19.0301L126.801 18.9913C127.305 18.9783 127.758 18.8878 128.159 18.7197C128.56 18.5386 128.877 18.2347 129.109 17.8079C129.342 17.3811 129.459 16.7992 129.459 16.062H130.312L130.196 20H120.108V19.1464C120.535 19.1206 120.839 19.0301 121.02 18.8749C121.214 18.7197 121.337 18.4869 121.389 18.1765C121.44 17.8661 121.466 17.4717 121.466 16.9932V8.92319C121.466 8.63867 121.473 8.36709 121.486 8.10844C121.498 7.83685 121.511 7.60406 121.524 7.41007C121.304 7.42301 121.065 7.43594 120.807 7.44887C120.548 7.4618 120.315 7.47474 120.108 7.48767V6.42073H129.575L129.672 9.93194H128.818C128.818 9.19478 128.695 8.63221 128.45 8.24423C128.217 7.85625 127.907 7.5976 127.519 7.46827C127.144 7.33894 126.736 7.28075 126.296 7.29368L124.939 7.33248C124.538 7.33248 124.234 7.40361 124.027 7.54587C123.82 7.67519 123.684 7.89505 123.619 8.20543C123.555 8.50288 123.522 8.91026 123.522 9.42757V12.4732H126.723L126.607 10.8049H127.674V15.0921H126.82Z" fill="white"/>
<line x1="0.152619" y1="26.5" x2="137.84" y2="25.5" stroke="white"/>
<path d="M8.10059 31.0469V41H7.2666V31.0469H8.10059ZM11.5117 31.0469V31.7715H3.8623V31.0469H11.5117ZM20.9984 40.2822V41H15.3997V40.2822H20.9984ZM15.6527 31.0469V41H14.8118V31.0469H15.6527ZM20.3011 35.5107V36.2285H15.3997V35.5107H20.3011ZM20.9642 31.0469V31.7715H15.3997V31.0469H20.9642ZM30.6627 37.8965H31.5036C31.4352 38.5664 31.2506 39.1452 30.9498 39.6328C30.6491 40.1159 30.2389 40.4873 29.7194 40.7471C29.1998 41.0068 28.5732 41.1367 27.8395 41.1367C27.2744 41.1367 26.7617 41.0296 26.3014 40.8154C25.8457 40.6012 25.4538 40.2982 25.1256 39.9062C24.7975 39.5098 24.5446 39.0358 24.3668 38.4844C24.1891 37.9329 24.1002 37.32 24.1002 36.6455V35.4014C24.1002 34.7269 24.1891 34.1162 24.3668 33.5693C24.5446 33.0179 24.7998 32.5439 25.1325 32.1475C25.4651 31.751 25.8639 31.4456 26.3288 31.2314C26.7936 31.0173 27.3177 30.9102 27.901 30.9102C28.6074 30.9102 29.2181 31.04 29.733 31.2998C30.248 31.555 30.6536 31.9242 30.9498 32.4072C31.2506 32.8903 31.4352 33.4736 31.5036 34.1572H30.6627C30.5989 33.6195 30.4577 33.1637 30.2389 32.79C30.0202 32.4163 29.7171 32.1315 29.3297 31.9355C28.9469 31.735 28.4707 31.6348 27.901 31.6348C27.4362 31.6348 27.0215 31.7236 26.6569 31.9014C26.2923 32.0791 25.9824 32.3343 25.7272 32.667C25.472 32.9951 25.276 33.3893 25.1393 33.8496C25.0071 34.3099 24.9411 34.8226 24.9411 35.3877V36.6455C24.9411 37.1924 25.0049 37.696 25.1325 38.1562C25.2601 38.6165 25.4469 39.0153 25.693 39.3525C25.9437 39.6898 26.249 39.9518 26.609 40.1387C26.9691 40.3255 27.3792 40.4189 27.8395 40.4189C28.4274 40.4189 28.9173 40.3255 29.3092 40.1387C29.7057 39.9473 30.0133 39.6647 30.2321 39.291C30.4508 38.9173 30.5944 38.4525 30.6627 37.8965ZM41.9267 35.5107V36.2285H35.8769V35.5107H41.9267ZM36.0752 31.0469V41H35.2343V31.0469H36.0752ZM42.6035 31.0469V41H41.7627V31.0469H42.6035ZM54.1751 35.4902V36.5566C54.1751 37.2539 54.0839 37.8851 53.9016 38.4502C53.7239 39.0107 53.4641 39.4915 53.1223 39.8926C52.7851 40.2936 52.3795 40.6012 51.9055 40.8154C51.4316 41.0296 50.8984 41.1367 50.3059 41.1367C49.7272 41.1367 49.1985 41.0296 48.72 40.8154C48.246 40.6012 47.8382 40.2936 47.4964 39.8926C47.1546 39.4915 46.8902 39.0107 46.7034 38.4502C46.5166 37.8851 46.4231 37.2539 46.4231 36.5566V35.4902C46.4231 34.793 46.5143 34.1641 46.6966 33.6035C46.8834 33.0384 47.1477 32.5553 47.4895 32.1543C47.8313 31.7533 48.2392 31.4456 48.7132 31.2314C49.1871 31.0173 49.7135 30.9102 50.2923 30.9102C50.8847 30.9102 51.4179 31.0173 51.8919 31.2314C52.3658 31.4456 52.7737 31.7533 53.1155 32.1543C53.4573 32.5553 53.7194 33.0384 53.9016 33.6035C54.0839 34.1641 54.1751 34.793 54.1751 35.4902ZM53.3411 36.5566V35.4766C53.3411 34.8887 53.2727 34.36 53.136 33.8906C53.0039 33.4212 52.8056 33.0202 52.5413 32.6875C52.2815 32.3548 51.9625 32.0996 51.5843 31.9219C51.206 31.7441 50.7753 31.6553 50.2923 31.6553C49.8229 31.6553 49.4013 31.7441 49.0276 31.9219C48.6539 32.0996 48.3349 32.3548 48.0706 32.6875C47.8108 33.0202 47.6103 33.4212 47.469 33.8906C47.3323 34.36 47.2639 34.8887 47.2639 35.4766V36.5566C47.2639 37.1491 47.3323 37.6823 47.469 38.1562C47.6103 38.6257 47.8131 39.029 48.0774 39.3662C48.3417 39.6989 48.6608 39.9541 49.0345 40.1318C49.4127 40.3096 49.8365 40.3984 50.3059 40.3984C50.7936 40.3984 51.2242 40.3096 51.5979 40.1318C51.9716 39.9541 52.2884 39.6989 52.5481 39.3662C52.8079 39.029 53.0039 38.6257 53.136 38.1562C53.2727 37.6823 53.3411 37.1491 53.3411 36.5566ZM65.3912 31.0469V41H64.5436L58.8219 32.4961V41H57.9811V31.0469H58.8219L64.5572 39.5508V31.0469H65.3912ZM76.9628 35.4902V36.5566C76.9628 37.2539 76.8717 37.8851 76.6894 38.4502C76.5116 39.0107 76.2519 39.4915 75.9101 39.8926C75.5728 40.2936 75.1672 40.6012 74.6933 40.8154C74.2193 41.0296 73.6861 41.1367 73.0937 41.1367C72.5149 41.1367 71.9863 41.0296 71.5077 40.8154C71.0338 40.6012 70.6259 40.2936 70.2841 39.8926C69.9423 39.4915 69.678 39.0107 69.4911 38.4502C69.3043 37.8851 69.2109 37.2539 69.2109 36.5566V35.4902C69.2109 34.793 69.302 34.1641 69.4843 33.6035C69.6711 33.0384 69.9355 32.5553 70.2773 32.1543C70.6191 31.7533 71.0269 31.4456 71.5009 31.2314C71.9749 31.0173 72.5012 30.9102 73.08 30.9102C73.6724 30.9102 74.2057 31.0173 74.6796 31.2314C75.1536 31.4456 75.5614 31.7533 75.9032 32.1543C76.245 32.5553 76.5071 33.0384 76.6894 33.6035C76.8717 34.1641 76.9628 34.793 76.9628 35.4902ZM76.1288 36.5566V35.4766C76.1288 34.8887 76.0605 34.36 75.9238 33.8906C75.7916 33.4212 75.5933 33.0202 75.329 32.6875C75.0693 32.3548 74.7502 32.0996 74.372 31.9219C73.9937 31.7441 73.5631 31.6553 73.08 31.6553C72.6106 31.6553 72.1891 31.7441 71.8154 31.9219C71.4417 32.0996 71.1226 32.3548 70.8583 32.6875C70.5986 33.0202 70.398 33.4212 70.2568 33.8906C70.12 34.36 70.0517 34.8887 70.0517 35.4766V36.5566C70.0517 37.1491 70.12 37.6823 70.2568 38.1562C70.398 38.6257 70.6008 39.029 70.8652 39.3662C71.1295 39.6989 71.4485 39.9541 71.8222 40.1318C72.2004 40.3096 72.6243 40.3984 73.0937 40.3984C73.5813 40.3984 74.012 40.3096 74.3857 40.1318C74.7594 39.9541 75.0761 39.6989 75.3359 39.3662C75.5956 39.029 75.7916 38.6257 75.9238 38.1562C76.0605 37.6823 76.1288 37.1491 76.1288 36.5566ZM86.5247 40.2822V41H81.3635V40.2822H86.5247ZM81.6096 31.0469V41H80.7688V31.0469H81.6096ZM96.7291 35.4902V36.5566C96.7291 37.2539 96.6379 37.8851 96.4556 38.4502C96.2779 39.0107 96.0181 39.4915 95.6763 39.8926C95.3391 40.2936 94.9335 40.6012 94.4595 40.8154C93.9856 41.0296 93.4524 41.1367 92.8599 41.1367C92.2811 41.1367 91.7525 41.0296 91.274 40.8154C90.8 40.6012 90.3922 40.2936 90.0504 39.8926C89.7086 39.4915 89.4442 39.0107 89.2574 38.4502C89.0705 37.8851 88.9771 37.2539 88.9771 36.5566V35.4902C88.9771 34.793 89.0683 34.1641 89.2505 33.6035C89.4374 33.0384 89.7017 32.5553 90.0435 32.1543C90.3853 31.7533 90.7932 31.4456 91.2672 31.2314C91.7411 31.0173 92.2675 30.9102 92.8463 30.9102C93.4387 30.9102 93.9719 31.0173 94.4459 31.2314C94.9198 31.4456 95.3277 31.7533 95.6695 32.1543C96.0113 32.5553 96.2733 33.0384 96.4556 33.6035C96.6379 34.1641 96.7291 34.793 96.7291 35.4902ZM95.8951 36.5566V35.4766C95.8951 34.8887 95.8267 34.36 95.69 33.8906C95.5578 33.4212 95.3596 33.0202 95.0953 32.6875C94.8355 32.3548 94.5165 32.0996 94.1382 31.9219C93.76 31.7441 93.3293 31.6553 92.8463 31.6553C92.3769 31.6553 91.9553 31.7441 91.5816 31.9219C91.2079 32.0996 90.8889 32.3548 90.6246 32.6875C90.3648 33.0202 90.1643 33.4212 90.023 33.8906C89.8863 34.36 89.8179 34.8887 89.8179 35.4766V36.5566C89.8179 37.1491 89.8863 37.6823 90.023 38.1562C90.1643 38.6257 90.3671 39.029 90.6314 39.3662C90.8957 39.6989 91.2147 39.9541 91.5884 40.1318C91.9667 40.3096 92.3905 40.3984 92.8599 40.3984C93.3476 40.3984 93.7782 40.3096 94.1519 40.1318C94.5256 39.9541 94.8423 39.6989 95.1021 39.3662C95.3619 39.029 95.5578 38.6257 95.69 38.1562C95.8267 37.6823 95.8951 37.1491 95.8951 36.5566ZM107.713 36.2695V39.8105C107.599 39.9792 107.403 40.166 107.125 40.3711C106.847 40.5762 106.473 40.7562 106.004 40.9111C105.534 41.0615 104.951 41.1367 104.254 41.1367C103.67 41.1367 103.135 41.0319 102.647 40.8223C102.16 40.6126 101.736 40.3096 101.376 39.9131C101.02 39.512 100.745 39.0312 100.549 38.4707C100.357 37.9102 100.262 37.2812 100.262 36.584V35.3809C100.262 34.6973 100.35 34.082 100.528 33.5352C100.706 32.9837 100.963 32.512 101.301 32.1201C101.638 31.7282 102.044 31.4297 102.517 31.2246C102.996 31.015 103.531 30.9102 104.124 30.9102C104.862 30.9102 105.484 31.0378 105.99 31.293C106.496 31.5482 106.89 31.8991 107.173 32.3457C107.46 32.7878 107.638 33.2891 107.706 33.8496H106.865C106.801 33.4531 106.669 33.0885 106.469 32.7559C106.268 32.4186 105.976 32.1475 105.594 31.9424C105.215 31.7373 104.725 31.6348 104.124 31.6348C103.641 31.6348 103.21 31.7236 102.832 31.9014C102.458 32.0791 102.144 32.332 101.889 32.6602C101.633 32.9883 101.44 33.3825 101.308 33.8428C101.175 34.2985 101.109 34.8066 101.109 35.3672V36.584C101.109 37.1673 101.182 37.6937 101.328 38.1631C101.478 38.6325 101.693 39.0358 101.971 39.373C102.249 39.7103 102.581 39.9701 102.969 40.1523C103.356 40.3301 103.787 40.4189 104.261 40.4189C104.766 40.4189 105.197 40.3711 105.553 40.2754C105.908 40.1797 106.193 40.0658 106.407 39.9336C106.626 39.7969 106.783 39.6693 106.879 39.5508V36.9873H104.206V36.2695H107.713ZM112.824 31.0469V41H111.984V31.0469H112.824ZM123.398 40.2822V41H117.799V40.2822H123.398ZM118.052 31.0469V41H117.211V31.0469H118.052ZM122.701 35.5107V36.2285H117.799V35.5107H122.701ZM123.364 31.0469V31.7715H117.799V31.0469H123.364ZM132.495 38.5527C132.495 38.2793 132.449 38.0355 132.358 37.8213C132.267 37.6071 132.117 37.4157 131.907 37.2471C131.702 37.0739 131.424 36.9144 131.073 36.7686C130.727 36.6182 130.294 36.4701 129.774 36.3242C129.278 36.1829 128.829 36.028 128.428 35.8594C128.027 35.6908 127.682 35.4971 127.395 35.2783C127.113 35.0596 126.896 34.8044 126.746 34.5127C126.596 34.2165 126.52 33.8724 126.52 33.4805C126.52 33.0977 126.602 32.749 126.766 32.4346C126.931 32.1201 127.161 31.849 127.457 31.6211C127.758 31.3932 128.111 31.2178 128.516 31.0947C128.927 30.9717 129.375 30.9102 129.863 30.9102C130.56 30.9102 131.162 31.0423 131.668 31.3066C132.178 31.571 132.572 31.9287 132.85 32.3799C133.133 32.8265 133.274 33.3278 133.274 33.8838H132.433C132.433 33.4508 132.331 33.0658 132.126 32.7285C131.925 32.3867 131.634 32.1201 131.251 31.9287C130.873 31.7327 130.41 31.6348 129.863 31.6348C129.316 31.6348 128.856 31.7191 128.482 31.8877C128.113 32.0518 127.833 32.2728 127.641 32.5508C127.455 32.8242 127.361 33.1296 127.361 33.4668C127.361 33.7038 127.407 33.9225 127.498 34.123C127.589 34.319 127.737 34.5036 127.942 34.6768C128.152 34.8454 128.428 35.0049 128.769 35.1553C129.111 35.3011 129.533 35.4401 130.034 35.5723C130.563 35.7181 131.032 35.8799 131.442 36.0576C131.852 36.2354 132.199 36.4404 132.481 36.6729C132.764 36.9007 132.978 37.1673 133.124 37.4727C133.27 37.778 133.343 38.1335 133.343 38.5391C133.343 38.9447 133.256 39.3092 133.083 39.6328C132.914 39.9518 132.675 40.223 132.365 40.4463C132.06 40.6696 131.697 40.8405 131.278 40.959C130.863 41.0775 130.41 41.1367 129.918 41.1367C129.476 41.1367 129.036 41.0798 128.598 40.9658C128.161 40.8519 127.76 40.6764 127.395 40.4395C127.035 40.1979 126.746 39.888 126.527 39.5098C126.313 39.1315 126.206 38.6803 126.206 38.1562H127.04C127.04 38.5755 127.124 38.9287 127.293 39.2158C127.461 39.5029 127.685 39.7354 127.963 39.9131C128.245 40.0908 128.555 40.2207 128.892 40.3027C129.234 40.3802 129.576 40.4189 129.918 40.4189C130.442 40.4189 130.895 40.3415 131.278 40.1865C131.666 40.0316 131.964 39.8151 132.174 39.5371C132.388 39.2546 132.495 38.9264 132.495 38.5527Z" fill="white"/>
</svg>
