<svg xmlns="http://www.w3.org/2000/svg" xmlns:xlink="http://www.w3.org/1999/xlink" width="1000" zoomAndPan="magnify" viewBox="0 0 750 374.999991" height="500" preserveAspectRatio="xMidYMid meet" version="1.0"><defs><g/><clipPath id="89f55d96e9"><path d="M 22.253906 28.023438 L 342.738281 28.023438 L 342.738281 348.507812 L 22.253906 348.507812 Z M 22.253906 28.023438 " clip-rule="nonzero"/></clipPath><clipPath id="7edadccb33"><path d="M 332.246094 164.046875 C 327.652344 159.742188 322.042969 154.804688 315.5625 149.644531 C 318.820312 140.195312 320.511719 129.753906 320.511719 118.496094 C 320.511719 99.75 309.609375 85.601562 291.101562 79.726562 C 285.320312 61.550781 271.144531 50.28125 252.28125 50.28125 C 240.191406 50.28125 229.882812 52.152344 221.117188 55.203125 C 215.957031 48.722656 211.035156 43.113281 206.730469 38.53125 C 200.476562 31.851562 191.644531 28.023438 182.511719 28.023438 C 177.941406 28.023438 173.441406 28.988281 169.3125 30.769531 C 165.179688 32.566406 161.40625 35.191406 158.277344 38.53125 C 153.984375 43.113281 149.050781 48.722656 143.890625 55.191406 C 135.125 52.152344 124.816406 50.28125 112.726562 50.28125 C 93.863281 50.28125 79.6875 61.550781 73.90625 79.714844 C 55.398438 85.601562 44.511719 99.738281 44.511719 118.496094 C 44.511719 129.765625 46.1875 140.195312 49.445312 149.644531 C 42.964844 154.804688 37.355469 159.742188 32.761719 164.046875 C 26.082031 170.300781 22.253906 179.132812 22.253906 188.28125 C 22.253906 197.414062 26.082031 206.246094 32.761719 212.5 C 37.355469 216.804688 42.964844 221.742188 49.445312 226.902344 C 46.1875 236.351562 44.511719 246.792969 44.511719 258.050781 C 44.511719 276.808594 55.398438 290.945312 73.90625 296.820312 C 79.6875 314.996094 93.863281 326.265625 112.726562 326.265625 C 124.816406 326.265625 135.125 324.394531 143.890625 321.355469 C 149.050781 327.824219 153.984375 333.433594 158.277344 338.015625 C 164.53125 344.695312 173.363281 348.519531 182.511719 348.519531 C 191.644531 348.519531 200.476562 344.695312 206.730469 338.015625 C 211.035156 333.433594 215.957031 327.824219 221.117188 321.355469 C 229.882812 324.394531 240.191406 326.265625 252.28125 326.265625 C 271.144531 326.265625 285.320312 314.996094 291.101562 296.820312 C 309.609375 290.945312 320.511719 276.808594 320.511719 258.050781 C 320.511719 246.792969 318.820312 236.351562 315.5625 226.902344 C 322.042969 221.742188 327.652344 216.804688 332.246094 212.5 C 338.925781 206.246094 342.75 197.414062 342.75 188.28125 C 342.75 179.132812 338.925781 170.300781 332.246094 164.046875 Z M 293.925781 100.898438 C 298.691406 104.34375 302.558594 109.808594 302.558594 118.496094 C 302.558594 125.582031 301.78125 132.222656 300.25 138.347656 C 296.34375 135.667969 292.222656 133.027344 287.921875 130.441406 C 291.628906 120.765625 293.714844 110.71875 293.925781 100.898438 Z M 275.832031 94.921875 C 275.949219 96.371094 276.027344 97.824219 276.027344 99.277344 C 276.027344 106.695312 274.617188 114.324219 272.027344 121.769531 C 266.894531 119.246094 261.5625 116.882812 256.042969 114.730469 C 253.90625 109.214844 251.542969 103.882812 249.007812 98.761719 C 258.15625 95.566406 267.421875 94.246094 275.832031 94.921875 Z M 252.28125 68.230469 C 260.375 68.230469 266.035156 71.675781 269.8125 76.835938 C 260.1875 77.0625 250.089844 79.105469 240.324219 82.84375 C 237.75 78.539062 235.109375 74.433594 232.445312 70.539062 C 238.25 69.089844 244.8125 68.230469 252.28125 68.230469 Z M 248.453125 156.613281 C 236.890625 166.738281 218.730469 176.96875 191.84375 178.921875 C 193.492188 156.585938 201.109375 137.222656 214.175781 122.335938 C 223.851562 123.535156 233.167969 125.78125 242.039062 128.738281 C 244.996094 137.621094 247.242188 146.9375 248.453125 156.613281 Z M 171.371094 50.808594 C 174.285156 47.691406 178.246094 45.976562 182.511719 45.976562 C 186.761719 45.976562 190.71875 47.691406 193.636719 50.808594 C 196.9375 54.332031 200.660156 58.503906 204.554688 63.242188 C 194.285156 69.90625 187.222656 78.117188 182.511719 85.324219 C 177.796875 78.117188 170.722656 69.90625 160.453125 63.242188 C 164.347656 58.503906 168.070312 54.332031 171.371094 50.808594 Z M 149.550781 77.511719 C 165.257812 87.011719 171.476562 101.203125 173.429688 106.996094 C 174.75 110.90625 178.390625 113.519531 182.511719 113.519531 C 186.617188 113.519531 190.257812 110.90625 191.578125 107.011719 C 193.53125 101.203125 199.75 87.011719 215.457031 77.511719 C 218.398438 81.667969 221.328125 86.089844 224.167969 90.761719 C 216.882812 95.183594 210.191406 100.503906 204.210938 106.667969 C 196.765625 114.335938 188.570312 125.292969 182.511719 140.074219 C 176.464844 125.292969 168.269531 114.335938 160.808594 106.679688 C 154.804688 100.488281 148.113281 95.171875 140.851562 90.75 C 143.691406 86.089844 146.621094 81.667969 149.550781 77.511719 Z M 248.453125 219.933594 C 247.242188 229.605469 244.996094 238.925781 242.039062 247.808594 C 233.167969 250.765625 223.851562 253.011719 214.175781 254.222656 C 201.109375 239.320312 193.492188 219.972656 191.84375 197.625 C 218.730469 199.578125 236.890625 209.808594 248.453125 219.933594 Z M 173.191406 178.933594 C 146.277344 176.96875 128.128906 166.738281 116.566406 156.613281 C 117.765625 146.9375 120.011719 137.621094 122.96875 128.738281 C 131.851562 125.78125 141.167969 123.535156 150.84375 122.320312 C 163.914062 137.222656 171.542969 156.574219 173.191406 178.933594 Z M 112.726562 68.230469 C 120.195312 68.230469 126.753906 69.089844 132.5625 70.539062 C 129.910156 74.433594 127.257812 78.539062 124.683594 82.828125 C 114.914062 79.105469 104.816406 77.0625 95.210938 76.835938 C 98.984375 71.675781 104.632812 68.230469 112.726562 68.230469 Z M 89.175781 94.933594 C 97.585938 94.246094 106.851562 95.566406 116 98.746094 C 113.476562 103.882812 111.113281 109.214844 108.964844 114.730469 C 103.445312 116.882812 98.113281 119.246094 92.976562 121.769531 C 90.390625 114.324219 88.980469 106.679688 88.980469 99.277344 C 88.980469 97.824219 89.058594 96.371094 89.175781 94.933594 Z M 71.082031 100.886719 C 71.292969 110.707031 73.378906 120.765625 77.085938 130.441406 C 72.78125 133.027344 68.664062 135.667969 64.757812 138.347656 C 63.226562 132.222656 62.449219 125.582031 62.449219 118.496094 C 62.449219 109.808594 66.316406 104.34375 71.082031 100.886719 Z M 71.082031 275.660156 C 66.316406 272.203125 62.449219 266.738281 62.449219 258.050781 C 62.449219 250.964844 63.226562 244.324219 64.757812 238.199219 C 68.664062 240.878906 72.78125 243.53125 77.085938 246.105469 C 73.378906 255.78125 71.292969 265.839844 71.082031 275.660156 Z M 45.039062 199.40625 C 41.921875 196.488281 40.207031 192.53125 40.207031 188.28125 C 40.207031 184.015625 41.921875 180.054688 45.039062 177.140625 C 54.316406 168.441406 68.058594 156.917969 85.019531 146.597656 C 88.847656 152.890625 93.375 158.84375 98.535156 164.203125 C 106.546875 172.519531 118.148438 181.691406 134.175781 188.28125 C 118.148438 194.851562 106.535156 204.039062 98.535156 212.34375 C 93.375 217.703125 88.847656 223.65625 85.019531 229.949219 C 68.058594 219.640625 54.316406 208.117188 45.039062 199.40625 Z M 173.191406 197.625 C 171.542969 219.972656 163.914062 239.320312 150.84375 254.222656 C 141.167969 253.011719 131.851562 250.765625 122.96875 247.808594 C 120.011719 238.925781 117.765625 229.605469 116.566406 219.933594 C 128.128906 209.808594 146.277344 199.578125 173.191406 197.625 Z M 89.175781 281.613281 C 89.058594 280.175781 88.980469 278.722656 88.980469 277.285156 C 88.980469 269.867188 90.390625 262.222656 92.976562 254.777344 C 98.113281 257.3125 103.445312 259.675781 108.964844 261.8125 C 111.113281 267.332031 113.476562 272.664062 116 277.796875 C 106.851562 280.980469 97.585938 282.300781 89.175781 281.613281 Z M 112.726562 308.328125 C 104.621094 308.328125 98.957031 304.859375 95.183594 299.671875 C 104.804688 299.457031 114.902344 297.425781 124.671875 293.703125 C 127.257812 298.007812 129.898438 302.097656 132.5625 306.003906 C 126.753906 307.457031 120.195312 308.328125 112.726562 308.328125 Z M 193.636719 325.738281 C 190.71875 328.855469 186.761719 330.582031 182.511719 330.582031 C 178.246094 330.582031 174.285156 328.867188 171.371094 325.738281 C 168.070312 322.214844 164.347656 318.042969 160.453125 313.304688 C 170.722656 306.640625 177.785156 298.429688 182.511719 291.234375 C 187.222656 298.429688 194.285156 306.640625 204.554688 313.304688 C 200.660156 318.042969 196.9375 322.214844 193.636719 325.738281 Z M 215.457031 299.035156 C 199.75 289.53125 193.546875 275.34375 191.578125 269.550781 C 190.257812 265.65625 186.617188 263.027344 182.511719 263.027344 C 178.390625 263.027344 174.75 265.65625 173.441406 269.550781 C 171.476562 275.34375 165.257812 289.53125 149.566406 299.035156 C 146.621094 294.878906 143.691406 290.457031 140.851562 285.796875 C 148.113281 281.375 154.804688 276.054688 160.808594 269.878906 C 168.269531 262.210938 176.464844 251.253906 182.511719 236.472656 C 188.570312 251.253906 196.753906 262.195312 204.210938 269.867188 C 210.191406 276.042969 216.882812 281.363281 224.167969 285.785156 C 221.328125 290.457031 218.398438 294.878906 215.457031 299.035156 Z M 252.28125 308.328125 C 244.8125 308.328125 238.25 307.457031 232.445312 306.003906 C 235.109375 302.097656 237.761719 297.992188 240.335938 293.691406 C 250.117188 297.425781 260.203125 299.457031 269.824219 299.671875 C 266.050781 304.859375 260.386719 308.328125 252.28125 308.328125 Z M 275.832031 281.613281 C 267.421875 282.300781 258.15625 280.980469 249.007812 277.785156 C 251.542969 272.664062 253.90625 267.332031 256.042969 261.8125 C 261.5625 259.675781 266.894531 257.3125 272.027344 254.777344 C 274.617188 262.222656 276.027344 269.867188 276.027344 277.285156 C 276.027344 278.722656 275.949219 280.175781 275.832031 281.613281 Z M 293.925781 275.648438 C 293.714844 265.839844 291.628906 255.78125 287.921875 246.105469 C 292.222656 243.53125 296.34375 240.878906 300.25 238.199219 C 301.78125 244.324219 302.558594 250.964844 302.558594 258.050781 C 302.558594 266.738281 298.691406 272.203125 293.925781 275.648438 Z M 319.96875 199.40625 C 310.691406 208.117188 296.949219 219.628906 279.988281 229.949219 C 276.160156 223.65625 271.632812 217.703125 266.472656 212.34375 C 258.472656 204.039062 246.859375 194.851562 230.832031 188.28125 C 246.859375 181.691406 258.472656 172.519531 266.472656 164.203125 C 271.632812 158.84375 276.160156 152.890625 279.988281 146.597656 C 296.949219 156.917969 310.691406 168.441406 319.96875 177.140625 C 323.097656 180.054688 324.8125 184.015625 324.8125 188.28125 C 324.8125 192.53125 323.085938 196.488281 319.96875 199.40625 Z M 319.96875 199.40625 " clip-rule="nonzero"/></clipPath><linearGradient x1="0.0000000550647" gradientTransform="matrix(1.319946, 0, 0, 1.319946, 22.255627, 28.025089)" y1="121.404999" x2="242.799998" gradientUnits="userSpaceOnUse" y2="121.404999" id="0075417c5c"><stop stop-opacity="1" stop-color="rgb(22.399902%, 99.198914%, 43.499756%)" offset="0"/><stop stop-opacity="1" stop-color="rgb(22.312927%, 99.118042%, 43.62793%)" offset="0.0078125"/><stop stop-opacity="1" stop-color="rgb(22.140503%, 98.954773%, 43.885803%)" offset="0.015625"/><stop stop-opacity="1" stop-color="rgb(21.969604%, 98.79303%, 44.143677%)" offset="0.0234375"/><stop stop-opacity="1" stop-color="rgb(21.79718%, 98.629761%, 44.40155%)" offset="0.03125"/><stop stop-opacity="1" stop-color="rgb(21.624756%, 98.468018%, 44.657898%)" offset="0.0390625"/><stop stop-opacity="1" stop-color="rgb(21.453857%, 98.304749%, 44.915771%)" offset="0.046875"/><stop stop-opacity="1" stop-color="rgb(21.281433%, 98.143005%, 45.173645%)" offset="0.0546875"/><stop stop-opacity="1" stop-color="rgb(21.109009%, 97.979736%, 45.431519%)" offset="0.0625"/><stop stop-opacity="1" stop-color="rgb(20.93811%, 97.817993%, 45.689392%)" offset="0.0703125"/><stop stop-opacity="1" stop-color="rgb(20.765686%, 97.654724%, 45.947266%)" offset="0.078125"/><stop stop-opacity="1" stop-color="rgb(20.594788%, 97.492981%, 46.205139%)" offset="0.0859375"/><stop stop-opacity="1" stop-color="rgb(20.422363%, 97.329712%, 46.463013%)" offset="0.09375"/><stop stop-opacity="1" stop-color="rgb(20.249939%, 97.167969%, 46.720886%)" offset="0.101562"/><stop stop-opacity="1" stop-color="rgb(20.079041%, 97.0047%, 46.97876%)" offset="0.109375"/><stop stop-opacity="1" stop-color="rgb(19.906616%, 96.842957%, 47.236633%)" offset="0.117188"/><stop stop-opacity="1" stop-color="rgb(19.734192%, 96.679688%, 47.494507%)" offset="0.125"/><stop stop-opacity="1" stop-color="rgb(19.563293%, 96.517944%, 47.75238%)" offset="0.132812"/><stop stop-opacity="1" stop-color="rgb(19.390869%, 96.354675%, 48.010254%)" offset="0.140625"/><stop stop-opacity="1" stop-color="rgb(19.218445%, 96.192932%, 48.268127%)" offset="0.148438"/><stop stop-opacity="1" stop-color="rgb(19.047546%, 96.029663%, 48.526001%)" offset="0.15625"/><stop stop-opacity="1" stop-color="rgb(18.875122%, 95.86792%, 48.783875%)" offset="0.164062"/><stop stop-opacity="1" stop-color="rgb(18.704224%, 95.704651%, 49.041748%)" offset="0.171875"/><stop stop-opacity="1" stop-color="rgb(18.531799%, 95.542908%, 49.299622%)" offset="0.179688"/><stop stop-opacity="1" stop-color="rgb(18.359375%, 95.379639%, 49.557495%)" offset="0.1875"/><stop stop-opacity="1" stop-color="rgb(18.188477%, 95.217896%, 49.815369%)" offset="0.195312"/><stop stop-opacity="1" stop-color="rgb(18.016052%, 95.054626%, 50.071716%)" offset="0.203125"/><stop stop-opacity="1" stop-color="rgb(17.843628%, 94.892883%, 50.32959%)" offset="0.210938"/><stop stop-opacity="1" stop-color="rgb(17.672729%, 94.729614%, 50.587463%)" offset="0.21875"/><stop stop-opacity="1" stop-color="rgb(17.500305%, 94.567871%, 50.845337%)" offset="0.226562"/><stop stop-opacity="1" stop-color="rgb(17.329407%, 94.404602%, 51.10321%)" offset="0.234375"/><stop stop-opacity="1" stop-color="rgb(17.156982%, 94.242859%, 51.361084%)" offset="0.242188"/><stop stop-opacity="1" stop-color="rgb(16.984558%, 94.07959%, 51.618958%)" offset="0.25"/><stop stop-opacity="1" stop-color="rgb(16.81366%, 93.917847%, 51.876831%)" offset="0.257812"/><stop stop-opacity="1" stop-color="rgb(16.641235%, 93.754578%, 52.134705%)" offset="0.265625"/><stop stop-opacity="1" stop-color="rgb(16.468811%, 93.592834%, 52.392578%)" offset="0.273437"/><stop stop-opacity="1" stop-color="rgb(16.297913%, 93.431091%, 52.650452%)" offset="0.28125"/><stop stop-opacity="1" stop-color="rgb(16.125488%, 93.267822%, 52.908325%)" offset="0.289062"/><stop stop-opacity="1" stop-color="rgb(15.953064%, 93.106079%, 53.166199%)" offset="0.296875"/><stop stop-opacity="1" stop-color="rgb(15.782166%, 92.94281%, 53.424072%)" offset="0.304687"/><stop stop-opacity="1" stop-color="rgb(15.609741%, 92.781067%, 53.681946%)" offset="0.3125"/><stop stop-opacity="1" stop-color="rgb(15.438843%, 92.617798%, 53.939819%)" offset="0.320312"/><stop stop-opacity="1" stop-color="rgb(15.266418%, 92.456055%, 54.197693%)" offset="0.328125"/><stop stop-opacity="1" stop-color="rgb(15.093994%, 92.292786%, 54.455566%)" offset="0.335937"/><stop stop-opacity="1" stop-color="rgb(14.923096%, 92.131042%, 54.71344%)" offset="0.34375"/><stop stop-opacity="1" stop-color="rgb(14.750671%, 91.967773%, 54.971313%)" offset="0.351562"/><stop stop-opacity="1" stop-color="rgb(14.578247%, 91.80603%, 55.229187%)" offset="0.359375"/><stop stop-opacity="1" stop-color="rgb(14.407349%, 91.642761%, 55.485535%)" offset="0.367187"/><stop stop-opacity="1" stop-color="rgb(14.234924%, 91.481018%, 55.743408%)" offset="0.375"/><stop stop-opacity="1" stop-color="rgb(14.0625%, 91.317749%, 56.001282%)" offset="0.382812"/><stop stop-opacity="1" stop-color="rgb(13.891602%, 91.156006%, 56.259155%)" offset="0.390625"/><stop stop-opacity="1" stop-color="rgb(13.719177%, 90.992737%, 56.517029%)" offset="0.398437"/><stop stop-opacity="1" stop-color="rgb(13.548279%, 90.830994%, 56.774902%)" offset="0.40625"/><stop stop-opacity="1" stop-color="rgb(13.375854%, 90.667725%, 57.032776%)" offset="0.414062"/><stop stop-opacity="1" stop-color="rgb(13.20343%, 90.505981%, 57.290649%)" offset="0.421875"/><stop stop-opacity="1" stop-color="rgb(13.032532%, 90.342712%, 57.548523%)" offset="0.429687"/><stop stop-opacity="1" stop-color="rgb(12.860107%, 90.180969%, 57.806396%)" offset="0.4375"/><stop stop-opacity="1" stop-color="rgb(12.687683%, 90.0177%, 58.06427%)" offset="0.445312"/><stop stop-opacity="1" stop-color="rgb(12.516785%, 89.855957%, 58.322144%)" offset="0.453125"/><stop stop-opacity="1" stop-color="rgb(12.34436%, 89.692688%, 58.580017%)" offset="0.460937"/><stop stop-opacity="1" stop-color="rgb(12.171936%, 89.530945%, 58.837891%)" offset="0.46875"/><stop stop-opacity="1" stop-color="rgb(12.001038%, 89.367676%, 59.095764%)" offset="0.476562"/><stop stop-opacity="1" stop-color="rgb(11.828613%, 89.205933%, 59.353638%)" offset="0.484375"/><stop stop-opacity="1" stop-color="rgb(11.657715%, 89.042664%, 59.611511%)" offset="0.492187"/><stop stop-opacity="1" stop-color="rgb(11.485291%, 88.88092%, 59.869385%)" offset="0.5"/><stop stop-opacity="1" stop-color="rgb(11.312866%, 88.717651%, 60.127258%)" offset="0.507812"/><stop stop-opacity="1" stop-color="rgb(11.141968%, 88.555908%, 60.385132%)" offset="0.515625"/><stop stop-opacity="1" stop-color="rgb(10.969543%, 88.392639%, 60.643005%)" offset="0.523438"/><stop stop-opacity="1" stop-color="rgb(10.797119%, 88.230896%, 60.900879%)" offset="0.53125"/><stop stop-opacity="1" stop-color="rgb(10.626221%, 88.067627%, 61.157227%)" offset="0.539062"/><stop stop-opacity="1" stop-color="rgb(10.453796%, 87.905884%, 61.4151%)" offset="0.546875"/><stop stop-opacity="1" stop-color="rgb(10.281372%, 87.742615%, 61.672974%)" offset="0.554688"/><stop stop-opacity="1" stop-color="rgb(10.110474%, 87.580872%, 61.930847%)" offset="0.5625"/><stop stop-opacity="1" stop-color="rgb(9.938049%, 87.417603%, 62.188721%)" offset="0.570312"/><stop stop-opacity="1" stop-color="rgb(9.767151%, 87.255859%, 62.446594%)" offset="0.578125"/><stop stop-opacity="1" stop-color="rgb(9.594727%, 87.09259%, 62.704468%)" offset="0.585938"/><stop stop-opacity="1" stop-color="rgb(9.422302%, 86.930847%, 62.962341%)" offset="0.59375"/><stop stop-opacity="1" stop-color="rgb(9.251404%, 86.767578%, 63.220215%)" offset="0.601562"/><stop stop-opacity="1" stop-color="rgb(9.078979%, 86.605835%, 63.478088%)" offset="0.609375"/><stop stop-opacity="1" stop-color="rgb(8.906555%, 86.442566%, 63.735962%)" offset="0.617188"/><stop stop-opacity="1" stop-color="rgb(8.735657%, 86.280823%, 63.993835%)" offset="0.625"/><stop stop-opacity="1" stop-color="rgb(8.563232%, 86.117554%, 64.251709%)" offset="0.632812"/><stop stop-opacity="1" stop-color="rgb(8.390808%, 85.955811%, 64.509583%)" offset="0.640625"/><stop stop-opacity="1" stop-color="rgb(8.21991%, 85.792542%, 64.767456%)" offset="0.648438"/><stop stop-opacity="1" stop-color="rgb(8.047485%, 85.630798%, 65.02533%)" offset="0.65625"/><stop stop-opacity="1" stop-color="rgb(7.876587%, 85.467529%, 65.283203%)" offset="0.664062"/><stop stop-opacity="1" stop-color="rgb(7.704163%, 85.305786%, 65.541077%)" offset="0.671875"/><stop stop-opacity="1" stop-color="rgb(7.531738%, 85.142517%, 65.79895%)" offset="0.679688"/><stop stop-opacity="1" stop-color="rgb(7.36084%, 84.980774%, 66.056824%)" offset="0.6875"/><stop stop-opacity="1" stop-color="rgb(7.188416%, 84.817505%, 66.314697%)" offset="0.695312"/><stop stop-opacity="1" stop-color="rgb(7.015991%, 84.655762%, 66.571045%)" offset="0.703125"/><stop stop-opacity="1" stop-color="rgb(6.845093%, 84.492493%, 66.828918%)" offset="0.710938"/><stop stop-opacity="1" stop-color="rgb(6.672668%, 84.33075%, 67.086792%)" offset="0.71875"/><stop stop-opacity="1" stop-color="rgb(6.500244%, 84.16748%, 67.344666%)" offset="0.726562"/><stop stop-opacity="1" stop-color="rgb(6.329346%, 84.005737%, 67.602539%)" offset="0.734375"/><stop stop-opacity="1" stop-color="rgb(6.156921%, 83.843994%, 67.860413%)" offset="0.742188"/><stop stop-opacity="1" stop-color="rgb(5.986023%, 83.680725%, 68.118286%)" offset="0.75"/><stop stop-opacity="1" stop-color="rgb(5.813599%, 83.518982%, 68.37616%)" offset="0.757812"/><stop stop-opacity="1" stop-color="rgb(5.641174%, 83.355713%, 68.634033%)" offset="0.765625"/><stop stop-opacity="1" stop-color="rgb(5.470276%, 83.19397%, 68.891907%)" offset="0.773438"/><stop stop-opacity="1" stop-color="rgb(5.297852%, 83.030701%, 69.14978%)" offset="0.78125"/><stop stop-opacity="1" stop-color="rgb(5.125427%, 82.868958%, 69.407654%)" offset="0.789062"/><stop stop-opacity="1" stop-color="rgb(4.954529%, 82.705688%, 69.665527%)" offset="0.796875"/><stop stop-opacity="1" stop-color="rgb(4.782104%, 82.543945%, 69.923401%)" offset="0.804688"/><stop stop-opacity="1" stop-color="rgb(4.60968%, 82.380676%, 70.181274%)" offset="0.8125"/><stop stop-opacity="1" stop-color="rgb(4.438782%, 82.218933%, 70.439148%)" offset="0.820312"/><stop stop-opacity="1" stop-color="rgb(4.266357%, 82.055664%, 70.697021%)" offset="0.828125"/><stop stop-opacity="1" stop-color="rgb(4.095459%, 81.893921%, 70.954895%)" offset="0.835938"/><stop stop-opacity="1" stop-color="rgb(3.923035%, 81.730652%, 71.212769%)" offset="0.84375"/><stop stop-opacity="1" stop-color="rgb(3.75061%, 81.568909%, 71.470642%)" offset="0.851562"/><stop stop-opacity="1" stop-color="rgb(3.579712%, 81.40564%, 71.728516%)" offset="0.859375"/><stop stop-opacity="1" stop-color="rgb(3.407288%, 81.243896%, 71.984863%)" offset="0.867188"/><stop stop-opacity="1" stop-color="rgb(3.234863%, 81.080627%, 72.242737%)" offset="0.875"/><stop stop-opacity="1" stop-color="rgb(3.063965%, 80.918884%, 72.50061%)" offset="0.882812"/><stop stop-opacity="1" stop-color="rgb(2.891541%, 80.755615%, 72.758484%)" offset="0.890625"/><stop stop-opacity="1" stop-color="rgb(2.719116%, 80.593872%, 73.016357%)" offset="0.898438"/><stop stop-opacity="1" stop-color="rgb(2.548218%, 80.430603%, 73.274231%)" offset="0.90625"/><stop stop-opacity="1" stop-color="rgb(2.375793%, 80.26886%, 73.532104%)" offset="0.914062"/><stop stop-opacity="1" stop-color="rgb(2.204895%, 80.105591%, 73.789978%)" offset="0.921875"/><stop stop-opacity="1" stop-color="rgb(2.032471%, 79.943848%, 74.047852%)" offset="0.929688"/><stop stop-opacity="1" stop-color="rgb(1.860046%, 79.780579%, 74.305725%)" offset="0.9375"/><stop stop-opacity="1" stop-color="rgb(1.689148%, 79.618835%, 74.563599%)" offset="0.945312"/><stop stop-opacity="1" stop-color="rgb(1.516724%, 79.455566%, 74.821472%)" offset="0.953125"/><stop stop-opacity="1" stop-color="rgb(1.344299%, 79.293823%, 75.079346%)" offset="0.960938"/><stop stop-opacity="1" stop-color="rgb(1.173401%, 79.130554%, 75.337219%)" offset="0.96875"/><stop stop-opacity="1" stop-color="rgb(1.000977%, 78.968811%, 75.595093%)" offset="0.976562"/><stop stop-opacity="1" stop-color="rgb(0.830078%, 78.805542%, 75.852966%)" offset="0.984375"/><stop stop-opacity="1" stop-color="rgb(0.657654%, 78.643799%, 76.11084%)" offset="0.992188"/><stop stop-opacity="1" stop-color="rgb(0.485229%, 78.48053%, 76.368713%)" offset="1"/></linearGradient></defs><rect x="-75" width="900" fill="#ffffff" y="-37.499999" height="449.999989" fill-opacity="1"/><rect x="-75" width="900" fill="#ffffff" y="-37.499999" height="449.999989" fill-opacity="1"/><rect x="-75" width="900" fill="#ffffff" y="-37.499999" height="449.999989" fill-opacity="1"/><g clip-path="url(#89f55d96e9)"><g clip-path="url(#7edadccb33)"><path fill="url(#0075417c5c)" d="M 22.253906 28.023438 L 22.253906 348.507812 L 342.738281 348.507812 L 342.738281 28.023438 Z M 22.253906 28.023438 " fill-rule="nonzero"/></g></g><g fill="#ffffff" fill-opacity="1"><g transform="translate(371.083343, 217.111124)"><g><path d="M 50.984375 -34.09375 L 73.53125 -101.109375 L 100.109375 -101.109375 L 62.546875 0 L 39 0 L 1.4375 -101.109375 L 28.3125 -101.109375 Z M 50.984375 -34.09375 "/></g></g></g><g fill="#ffffff" fill-opacity="1"><g transform="translate(472.628269, 217.111124)"><g><path d="M 70.0625 0 L 42.46875 -34.375 L 37.125 -34.375 L 37.125 0 L 11.84375 0 L 11.84375 -101.109375 L 48.828125 -101.109375 C 56.816406 -101.109375 63.796875 -99.710938 69.765625 -96.921875 C 75.742188 -94.128906 80.367188 -90.179688 83.640625 -85.078125 C 86.910156 -79.972656 88.546875 -74.097656 88.546875 -67.453125 C 88.546875 -60.816406 86.910156 -54.992188 83.640625 -49.984375 C 80.367188 -44.972656 75.695312 -41.117188 69.625 -38.421875 L 100.6875 0 Z M 37.125 -79.875 L 37.125 -55.1875 L 47.671875 -55.1875 C 52.484375 -55.1875 56.210938 -56.335938 58.859375 -58.640625 C 61.515625 -60.953125 62.84375 -63.890625 62.84375 -67.453125 C 62.84375 -71.117188 61.515625 -74.101562 58.859375 -76.40625 C 56.210938 -78.71875 52.484375 -79.875 47.671875 -79.875 Z M 37.125 -79.875 "/></g></g></g><g fill="#ffffff" fill-opacity="1"><g transform="translate(371.083343, 304.782267)"><g><path d="M 14.703125 0 L 10.578125 0 L 10.578125 -32.234375 L 1.296875 -32.234375 L 1.296875 -36.109375 L 23.984375 -36.109375 L 23.984375 -32.234375 L 14.703125 -32.234375 Z M 14.703125 0 "/></g></g></g><g fill="#ffffff" fill-opacity="1"><g transform="translate(396.61271, 304.782267)"><g><path d="M 15.984375 -25.78125 C 18.015625 -25.78125 19.8125 -25.289062 21.375 -24.3125 C 22.9375 -23.332031 24.148438 -22 25.015625 -20.3125 C 25.878906 -18.632812 26.3125 -16.765625 26.3125 -14.703125 L 26.3125 0 L 22.4375 0 L 22.4375 -14.703125 C 22.4375 -16.929688 21.816406 -18.734375 20.578125 -20.109375 C 19.335938 -21.484375 17.632812 -22.171875 15.46875 -22.171875 C 14.09375 -22.171875 12.835938 -21.851562 11.703125 -21.21875 C 10.566406 -20.582031 9.664062 -19.695312 9 -18.5625 C 8.332031 -17.425781 8 -16.140625 8 -14.703125 L 8 0 L 4.125 0 L 4.125 -37.140625 L 8 -37.140625 L 8 -21.921875 C 9.03125 -23.191406 10.222656 -24.148438 11.578125 -24.796875 C 12.929688 -25.453125 14.398438 -25.78125 15.984375 -25.78125 Z M 15.984375 -25.78125 "/></g></g></g><g fill="#ffffff" fill-opacity="1"><g transform="translate(426.783746, 304.782267)"><g><path d="M 14.75 -25.78125 C 17.050781 -25.78125 19.15625 -25.253906 21.0625 -24.203125 C 22.976562 -23.160156 24.484375 -21.6875 25.578125 -19.78125 C 26.679688 -17.875 27.234375 -15.695312 27.234375 -13.25 C 27.234375 -12.425781 27.195312 -11.789062 27.125 -11.34375 L 6.140625 -11.34375 C 6.378906 -8.832031 7.265625 -6.828125 8.796875 -5.328125 C 10.328125 -3.835938 12.3125 -3.09375 14.75 -3.09375 C 18.320312 -3.09375 20.898438 -4.554688 22.484375 -7.484375 L 26.609375 -7.484375 C 25.578125 -4.898438 24.046875 -2.921875 22.015625 -1.546875 C 19.992188 -0.171875 17.570312 0.515625 14.75 0.515625 C 12.375 0.515625 10.210938 -0.0546875 8.265625 -1.203125 C 6.328125 -2.359375 4.804688 -3.929688 3.703125 -5.921875 C 2.609375 -7.921875 2.0625 -10.160156 2.0625 -12.640625 C 2.0625 -15.109375 2.609375 -17.335938 3.703125 -19.328125 C 4.804688 -21.328125 6.328125 -22.898438 8.265625 -24.046875 C 10.210938 -25.203125 12.375 -25.78125 14.75 -25.78125 Z M 14.75 -22.171875 C 12.476562 -22.171875 10.59375 -21.519531 9.09375 -20.21875 C 7.601562 -18.914062 6.671875 -17.128906 6.296875 -14.859375 L 23.15625 -14.859375 C 22.914062 -17.054688 22.015625 -18.820312 20.453125 -20.15625 C 18.890625 -21.5 16.988281 -22.171875 14.75 -22.171875 Z M 14.75 -22.171875 "/></g></g></g><g fill="#ffffff" fill-opacity="1"><g transform="translate(456.07802, 304.782267)"><g/></g></g><g fill="#ffffff" fill-opacity="1"><g transform="translate(470.776764, 304.782267)"><g><path d="M 14.796875 0.515625 C 12.328125 0.515625 10.179688 0.0507812 8.359375 -0.875 C 6.535156 -1.800781 5.132812 -3.085938 4.15625 -4.734375 C 3.175781 -6.390625 2.648438 -8.25 2.578125 -10.3125 L 6.703125 -10.3125 C 6.773438 -8.28125 7.515625 -6.613281 8.921875 -5.3125 C 10.328125 -4.007812 12.285156 -3.359375 14.796875 -3.359375 C 17.035156 -3.359375 18.816406 -3.890625 20.140625 -4.953125 C 21.460938 -6.015625 22.125 -7.457031 22.125 -9.28125 C 22.125 -10.695312 21.753906 -11.859375 21.015625 -12.765625 C 20.273438 -13.671875 19.351562 -14.382812 18.25 -14.90625 C 17.15625 -15.425781 15.679688 -15.976562 13.828125 -16.5625 C 11.554688 -17.351562 9.75 -18.082031 8.40625 -18.75 C 7.0625 -19.414062 5.90625 -20.421875 4.9375 -21.765625 C 3.976562 -23.109375 3.5 -24.878906 3.5 -27.078125 C 3.5 -28.867188 3.976562 -30.484375 4.9375 -31.921875 C 5.90625 -33.367188 7.238281 -34.515625 8.9375 -35.359375 C 10.644531 -36.203125 12.566406 -36.625 14.703125 -36.625 C 16.734375 -36.625 18.582031 -36.179688 20.25 -35.296875 C 21.914062 -34.421875 23.242188 -33.207031 24.234375 -31.65625 C 25.234375 -30.113281 25.75 -28.414062 25.78125 -26.5625 L 21.65625 -26.5625 C 21.59375 -28.382812 20.890625 -29.867188 19.546875 -31.015625 C 18.203125 -32.171875 16.535156 -32.75 14.546875 -32.75 C 12.585938 -32.75 10.96875 -32.265625 9.6875 -31.296875 C 8.414062 -30.335938 7.78125 -28.929688 7.78125 -27.078125 C 7.78125 -25.773438 8.132812 -24.691406 8.84375 -23.828125 C 9.550781 -22.972656 10.425781 -22.300781 11.46875 -21.8125 C 12.519531 -21.332031 13.972656 -20.765625 15.828125 -20.109375 C 18.066406 -19.390625 19.898438 -18.664062 21.328125 -17.9375 C 22.753906 -17.21875 23.957031 -16.160156 24.9375 -14.765625 C 25.914062 -13.378906 26.40625 -11.550781 26.40625 -9.28125 C 26.40625 -7.425781 25.894531 -5.75 24.875 -4.25 C 23.863281 -2.757812 22.484375 -1.59375 20.734375 -0.75 C 18.984375 0.09375 17.003906 0.515625 14.796875 0.515625 Z M 14.796875 0.515625 "/></g></g></g><g fill="#ffffff" fill-opacity="1"><g transform="translate(500.019429, 304.782267)"><g><path d="M 15.265625 0.515625 C 12.859375 0.515625 10.648438 -0.0546875 8.640625 -1.203125 C 6.628906 -2.359375 5.03125 -3.941406 3.84375 -5.953125 C 2.65625 -7.960938 2.0625 -10.191406 2.0625 -12.640625 C 2.0625 -15.078125 2.65625 -17.300781 3.84375 -19.3125 C 5.03125 -21.320312 6.628906 -22.898438 8.640625 -24.046875 C 10.648438 -25.203125 12.859375 -25.78125 15.265625 -25.78125 C 17.671875 -25.78125 19.878906 -25.203125 21.890625 -24.046875 C 23.898438 -22.898438 25.5 -21.320312 26.6875 -19.3125 C 27.875 -17.300781 28.46875 -15.078125 28.46875 -12.640625 C 28.46875 -10.191406 27.875 -7.960938 26.6875 -5.953125 C 25.5 -3.941406 23.898438 -2.359375 21.890625 -1.203125 C 19.878906 -0.0546875 17.671875 0.515625 15.265625 0.515625 Z M 15.265625 -3.09375 C 16.953125 -3.09375 18.488281 -3.515625 19.875 -4.359375 C 21.269531 -5.203125 22.378906 -6.34375 23.203125 -7.78125 C 24.035156 -9.226562 24.453125 -10.847656 24.453125 -12.640625 C 24.453125 -14.421875 24.035156 -16.035156 23.203125 -17.484375 C 22.378906 -18.929688 21.269531 -20.070312 19.875 -20.90625 C 18.488281 -21.75 16.953125 -22.171875 15.265625 -22.171875 C 13.578125 -22.171875 12.035156 -21.75 10.640625 -20.90625 C 9.253906 -20.070312 8.148438 -18.929688 7.328125 -17.484375 C 6.503906 -16.035156 6.09375 -14.421875 6.09375 -12.640625 C 6.09375 -10.847656 6.503906 -9.226562 7.328125 -7.78125 C 8.148438 -6.34375 9.253906 -5.203125 10.640625 -4.359375 C 12.035156 -3.515625 13.578125 -3.09375 15.265625 -3.09375 Z M 15.265625 -3.09375 "/></g></g></g><g fill="#ffffff" fill-opacity="1"><g transform="translate(530.809383, 304.782267)"><g><path d="M 8 0 L 4.125 0 L 4.125 -37.140625 L 8 -37.140625 Z M 8 0 "/></g></g></g><g fill="#ffffff" fill-opacity="1"><g transform="translate(543.187301, 304.782267)"><g><path d="M 14.59375 0.515625 C 12.425781 0.515625 10.507812 0.0390625 8.84375 -0.90625 C 7.175781 -1.851562 5.882812 -3.164062 4.96875 -4.84375 C 4.0625 -6.53125 3.609375 -8.441406 3.609375 -10.578125 L 3.609375 -25.265625 L 7.484375 -25.265625 L 7.484375 -10.578125 C 7.484375 -8.367188 8.132812 -6.566406 9.4375 -5.171875 C 10.75 -3.785156 12.46875 -3.09375 14.59375 -3.09375 C 16.726562 -3.09375 18.445312 -3.785156 19.75 -5.171875 C 21.0625 -6.566406 21.71875 -8.367188 21.71875 -10.578125 L 21.71875 -25.265625 L 25.578125 -25.265625 L 25.578125 -10.578125 C 25.578125 -8.441406 25.117188 -6.53125 24.203125 -4.84375 C 23.296875 -3.164062 22.007812 -1.851562 20.34375 -0.90625 C 18.675781 0.0390625 16.757812 0.515625 14.59375 0.515625 Z M 14.59375 0.515625 "/></g></g></g><g fill="#ffffff" fill-opacity="1"><g transform="translate(572.636277, 304.782267)"><g><path d="M 15.984375 -21.765625 L 9.546875 -21.765625 L 9.546875 -7.734375 C 9.546875 -6.460938 9.914062 -5.457031 10.65625 -4.71875 C 11.394531 -3.976562 12.398438 -3.609375 13.671875 -3.609375 L 15.984375 -3.609375 L 15.984375 0 L 13.40625 0 C 11.101562 0 9.238281 -0.691406 7.8125 -2.078125 C 6.382812 -3.472656 5.671875 -5.273438 5.671875 -7.484375 L 5.671875 -21.765625 L 1.546875 -21.765625 L 1.546875 -25.265625 L 5.671875 -25.265625 L 5.671875 -31.984375 L 9.546875 -31.984375 L 9.546875 -25.265625 L 15.984375 -25.265625 Z M 15.984375 -21.765625 "/></g></g></g><g fill="#ffffff" fill-opacity="1"><g transform="translate(590.945236, 304.782267)"><g><path d="M 7.734375 0 L 3.875 0 L 3.875 -25.265625 L 7.734375 -25.265625 Z M 8.046875 -30.125 L 3.5625 -30.125 L 3.5625 -34.859375 L 8.046875 -34.859375 Z M 8.046875 -30.125 "/></g></g></g><g fill="#ffffff" fill-opacity="1"><g transform="translate(602.807392, 304.782267)"><g><path d="M 15.265625 0.515625 C 12.859375 0.515625 10.648438 -0.0546875 8.640625 -1.203125 C 6.628906 -2.359375 5.03125 -3.941406 3.84375 -5.953125 C 2.65625 -7.960938 2.0625 -10.191406 2.0625 -12.640625 C 2.0625 -15.078125 2.65625 -17.300781 3.84375 -19.3125 C 5.03125 -21.320312 6.628906 -22.898438 8.640625 -24.046875 C 10.648438 -25.203125 12.859375 -25.78125 15.265625 -25.78125 C 17.671875 -25.78125 19.878906 -25.203125 21.890625 -24.046875 C 23.898438 -22.898438 25.5 -21.320312 26.6875 -19.3125 C 27.875 -17.300781 28.46875 -15.078125 28.46875 -12.640625 C 28.46875 -10.191406 27.875 -7.960938 26.6875 -5.953125 C 25.5 -3.941406 23.898438 -2.359375 21.890625 -1.203125 C 19.878906 -0.0546875 17.671875 0.515625 15.265625 0.515625 Z M 15.265625 -3.09375 C 16.953125 -3.09375 18.488281 -3.515625 19.875 -4.359375 C 21.269531 -5.203125 22.378906 -6.34375 23.203125 -7.78125 C 24.035156 -9.226562 24.453125 -10.847656 24.453125 -12.640625 C 24.453125 -14.421875 24.035156 -16.035156 23.203125 -17.484375 C 22.378906 -18.929688 21.269531 -20.070312 19.875 -20.90625 C 18.488281 -21.75 16.953125 -22.171875 15.265625 -22.171875 C 13.578125 -22.171875 12.035156 -21.75 10.640625 -20.90625 C 9.253906 -20.070312 8.148438 -18.929688 7.328125 -17.484375 C 6.503906 -16.035156 6.09375 -14.421875 6.09375 -12.640625 C 6.09375 -10.847656 6.503906 -9.226562 7.328125 -7.78125 C 8.148438 -6.34375 9.253906 -5.203125 10.640625 -4.359375 C 12.035156 -3.515625 13.578125 -3.09375 15.265625 -3.09375 Z M 15.265625 -3.09375 "/></g></g></g><g fill="#ffffff" fill-opacity="1"><g transform="translate(633.597332, 304.782267)"><g><path d="M 15.734375 -25.78125 C 17.765625 -25.78125 19.5625 -25.289062 21.125 -24.3125 C 22.6875 -23.332031 23.894531 -22 24.75 -20.3125 C 25.613281 -18.632812 26.046875 -16.765625 26.046875 -14.703125 L 26.046875 0 L 22.171875 0 L 22.171875 -14.703125 C 22.171875 -16.929688 21.550781 -18.734375 20.3125 -20.109375 C 19.082031 -21.484375 17.382812 -22.171875 15.21875 -22.171875 C 13.84375 -22.171875 12.585938 -21.851562 11.453125 -21.21875 C 10.316406 -20.582031 9.410156 -19.695312 8.734375 -18.5625 C 8.066406 -17.425781 7.734375 -16.140625 7.734375 -14.703125 L 7.734375 0 L 3.875 0 L 3.875 -25.265625 L 7.734375 -25.265625 L 7.734375 -21.921875 C 8.765625 -23.191406 9.957031 -24.148438 11.3125 -24.796875 C 12.675781 -25.453125 14.148438 -25.78125 15.734375 -25.78125 Z M 15.734375 -25.78125 "/></g></g></g><g fill="#ffffff" fill-opacity="1"><g transform="translate(663.510508, 304.782267)"><g><path d="M 12.578125 0.515625 C 10.691406 0.515625 9 0.171875 7.5 -0.515625 C 6.007812 -1.203125 4.832031 -2.144531 3.96875 -3.34375 C 3.113281 -4.550781 2.648438 -5.929688 2.578125 -7.484375 L 6.453125 -7.484375 C 6.554688 -6.171875 7.15625 -5.109375 8.25 -4.296875 C 9.351562 -3.492188 10.832031 -3.09375 12.6875 -3.09375 C 14.238281 -3.09375 15.519531 -3.414062 16.53125 -4.0625 C 17.539062 -4.71875 18.046875 -5.648438 18.046875 -6.859375 C 18.046875 -7.785156 17.769531 -8.53125 17.21875 -9.09375 C 16.675781 -9.664062 16 -10.085938 15.1875 -10.359375 C 14.382812 -10.640625 13.242188 -10.953125 11.765625 -11.296875 C 9.898438 -11.710938 8.414062 -12.132812 7.3125 -12.5625 C 6.21875 -12.988281 5.273438 -13.679688 4.484375 -14.640625 C 3.691406 -15.609375 3.296875 -16.914062 3.296875 -18.5625 C 3.296875 -19.90625 3.707031 -21.125 4.53125 -22.21875 C 5.363281 -23.320312 6.472656 -24.191406 7.859375 -24.828125 C 9.253906 -25.460938 10.78125 -25.78125 12.4375 -25.78125 C 14.050781 -25.78125 15.535156 -25.4375 16.890625 -24.75 C 18.242188 -24.0625 19.332031 -23.132812 20.15625 -21.96875 C 20.988281 -20.800781 21.421875 -19.492188 21.453125 -18.046875 L 17.59375 -18.046875 C 17.519531 -19.222656 16.984375 -20.203125 15.984375 -20.984375 C 14.992188 -21.773438 13.738281 -22.171875 12.21875 -22.171875 C 10.84375 -22.171875 9.679688 -21.84375 8.734375 -21.1875 C 7.796875 -20.539062 7.328125 -19.664062 7.328125 -18.5625 C 7.328125 -17.738281 7.59375 -17.066406 8.125 -16.546875 C 8.65625 -16.035156 9.304688 -15.640625 10.078125 -15.359375 C 10.859375 -15.085938 11.953125 -14.78125 13.359375 -14.4375 C 15.210938 -14.03125 16.710938 -13.59375 17.859375 -13.125 C 19.015625 -12.664062 20.003906 -11.9375 20.828125 -10.9375 C 21.660156 -9.9375 22.078125 -8.578125 22.078125 -6.859375 C 22.078125 -4.660156 21.164062 -2.878906 19.34375 -1.515625 C 17.519531 -0.160156 15.265625 0.515625 12.578125 0.515625 Z M 12.578125 0.515625 "/></g></g></g></svg>